<?xml version="1.0" standalone="no"?><!DOCTYPE svg PUBLIC "-//W3C//DTD SVG 1.1//EN" "http://www.w3.org/Graphics/SVG/1.1/DTD/svg11.dtd"><svg t="1722333169535" class="icon" viewBox="0 0 1024 1024" version="1.1" xmlns="http://www.w3.org/2000/svg" p-id="910" xmlns:xlink="http://www.w3.org/1999/xlink" width="200" height="200"><path d="M717.824 888.832c2.048 8.192 3.072 15.36 5.12 21.504-2.048-7.168-3.072-14.336-5.12-21.504z m290.816-648.192c-41.984-102.4-67.584-126.976-67.584-126.976s23.552 59.392-14.336 103.424c-37.888 44.032-201.728 59.392-247.808 179.2-14.336 37.888-21.504 68.608-24.576 93.184-26.624-141.312-92.16-292.864-277.504-320.512-209.92-31.744-228.352 48.128-376.832 40.96 0 0 123.904 32.768 177.152 173.056 52.224 140.288 159.744 362.496 380.928 382.976 89.088 8.192 138.24 49.152 159.744 124.928-32.768-146.432-102.4-487.424-524.288-655.36 69.632 9.216 393.216 36.864 477.184 396.288-3.072 41.984 4.096 103.424 36.864 195.584 0 0-45.056-150.528-17.408-193.536 26.624-43.008 95.232-47.104 167.936-75.776 73.728-28.672 210.944-172.032 150.528-317.44zM820.224 430.08c-43.008 38.912-121.856 105.472-136.192 142.336-5.12 13.312-10.24 30.72-12.288 55.296-2.048-26.624-5.12-56.32-9.216-88.064 10.24-24.576 34.816-73.728 77.824-111.616 45.056-39.936 139.264-100.352 202.752-159.744-10.24 35.84-79.872 123.904-122.88 161.792z" p-id="911" fill="#e11d48"></path></svg>